<?xml version="1.0" standalone="no"?>
<svg viewBox="0 0 200 200" xmlns="http://www.w3.org/2000/svg">
  <path fill="#D0E2FF" d="M31.5,-50.6C44.6,-47,61.6,-46.2,68.9,-38.2C76.2,-30.2,73.8,-15.1,70.2,-2.1C66.7,11,61.9,22,56.7,33.6C51.4,45.1,45.8,57.3,36.2,66.2C26.7,75.1,13.4,80.8,1.9,77.5C-9.6,74.2,-19.2,62.1,-31,54.5C-42.8,46.9,-56.8,43.9,-60.6,35.5C-64.4,27.2,-58,13.6,-54.7,2C-51.3,-9.7,-50.8,-19.4,-47.4,-28.3C-43.9,-37.2,-37.4,-45.4,-29,-51.6C-20.6,-57.9,-10.3,-62.3,-0.5,-61.3C9.2,-60.4,18.4,-54.1,31.5,-50.6Z" transform="translate(100 100)" />
</svg>
